<svg width="263" height="244" viewBox="0 0 263 244" fill="none" xmlns="http://www.w3.org/2000/svg">
<path d="M252.619 123.722C253.127 122.717 253.127 121.502 252.619 120.498C236.754 89.1278 206.328 69.6406 173.214 69.6406L112.149 69.6406L105.33 69.7125L80.0811 69.7125C76.9224 69.7125 74.3523 72.4828 74.3523 75.8874L74.3523 167.843C74.3523 171.248 76.9224 174.018 80.0811 174.018L109.648 174.018C110.151 174.378 110.749 174.579 111.375 174.579L173.215 174.579C206.328 174.579 236.754 155.091 252.619 123.722Z" fill="#0A878F"/>
<path opacity="0.1" d="M80.2401 78.6946L106.19 78.6946L113.198 78.6226L175.957 78.6226C207.017 78.6226 235.768 94.8598 252.949 121.541C252.892 121.181 252.785 120.828 252.619 120.499C236.755 89.1288 206.329 69.6416 173.215 69.6416L112.149 69.6416L105.33 69.7135L80.0814 69.7135C76.9227 69.7135 74.3526 72.4837 74.3526 75.8884L74.3526 84.8699C74.3531 81.4638 76.9942 78.6946 80.2401 78.6946Z" fill="#231F20"/>
<path d="M214.611 190.693C214.611 181.174 207.451 173.457 198.62 173.457L103.974 173.457C96.289 185.617 85.9585 200.668 77.7798 207.931L131.372 207.931L145.953 207.931L198.62 207.931C207.451 207.931 214.611 200.212 214.611 190.693Z" fill="#07F7FF" fill-opacity="0.67"/>
<path d="M104.764 70.764L198.62 70.764C207.451 70.764 214.611 63.0451 214.611 53.5273C214.611 44.0089 207.451 36.291 198.62 36.291L78.7062 36.291C86.8983 43.712 97.1582 58.7107 104.764 70.764Z" fill="#07F7FF" fill-opacity="0.67"/>
<path opacity="0.1" d="M197.315 182.439C205.161 182.439 211.783 188.071 213.9 195.789C214.362 194.179 214.611 192.467 214.611 190.694C214.611 181.174 207.451 173.458 198.62 173.458L103.974 173.458C102.155 176.337 100.186 179.378 98.1333 182.439L197.315 182.439L197.315 182.439Z" fill="#231F20"/>
<path opacity="0.1" d="M198.62 45.2721C206.009 45.2721 212.225 50.6769 214.059 58.0178C214.417 56.5852 214.611 55.0816 214.611 53.5273C214.611 44.0089 207.451 36.291 198.62 36.291L78.7062 36.291C81.2968 38.638 84.0937 41.7431 86.9478 45.2726L198.62 45.2721Z" fill="#231F20"/>
<path d="M8.99971 69.0796L8.99971 34.6065C8.99971 32.2811 10.7482 30.3965 12.9056 30.3965C15.063 30.3965 16.8115 32.2811 16.8115 34.6065L16.8115 69.0801C16.8115 71.405 15.0635 73.2901 12.9056 73.2901C10.7487 73.2896 8.99971 71.4039 8.99971 69.0796Z" fill="#0A878F"/>
<path d="M8.99971 209.614L8.99971 175.141C8.99971 172.815 10.7482 170.931 12.9056 170.931C15.063 170.931 16.8115 172.815 16.8115 175.141L16.8115 209.614C16.8115 211.939 15.0635 213.824 12.9056 213.824C10.7487 213.824 8.99971 211.939 8.99971 209.614Z" fill="#0A878F"/>
<path d="M47.2328 213.936C47.2328 213.936 56.2527 213.936 69.2824 213.936C82.3126 213.936 114.384 156.965 114.384 156.965L36.208 156.965C34.3542 156.965 32.6319 156.36 31.1984 155.326L31.197 155.326C31.197 155.326 31.1969 175.585 31.1969 195.029C31.1969 214.476 47.2328 213.936 47.2328 213.936Z" fill="#2DCEAE"/>
<path d="M47.8436 30.0015C47.8436 30.0015 56.8635 30.0015 69.8927 30.0015C82.9229 30.0015 114.994 86.9728 114.994 86.9728L36.8188 86.9728C34.965 86.9728 33.2427 87.5769 31.8101 88.6109L31.8092 88.6109C31.8092 88.6109 31.8092 68.3517 31.8092 48.9072C31.8082 29.4616 47.8436 30.0015 47.8436 30.0015Z" fill="#2DCEAE"/>
<path opacity="0.1" d="M44.7188 38.983C44.7188 38.983 53.7387 38.983 66.7679 38.983C76.5241 38.983 96.9562 70.9237 106.606 86.9728L114.993 86.9728C114.993 86.9728 82.9219 30.0015 69.8918 30.0015C56.863 30.0015 47.8426 30.0015 47.8426 30.0015C47.8426 30.0015 33.7664 29.5279 31.9912 45.463C36.6863 38.7221 44.7188 38.983 44.7188 38.983Z" fill="#231F20"/>
<path d="M176.259 147.884C185.374 140.624 190.394 131.471 190.394 122.11C190.394 112.749 185.374 103.595 176.259 96.3351C168.017 89.7704 157.635 85.8511 148.486 85.8511L37.2497 85.8511C31.5577 85.8511 26.9274 90.8424 26.9274 96.9767L26.9274 147.242C26.9274 153.376 31.5581 158.367 37.2497 158.367L148.486 158.367C157.634 158.368 168.017 154.449 176.259 147.884Z" fill="#00FFC6"/>
<path d="M92.2081 122.108C92.2081 131.281 99.1072 138.718 107.618 138.718C116.128 138.718 123.027 131.281 123.027 122.108C123.027 112.935 116.128 105.499 107.618 105.499C99.1072 105.499 92.2081 112.935 92.2081 122.108Z" fill="#0A878F"/>
<path opacity="0.1" d="M107.619 114.482C114.685 114.482 120.636 119.61 122.454 126.6C122.825 125.171 123.028 123.666 123.028 122.11C123.028 112.936 116.129 105.5 107.618 105.5C99.1073 105.5 92.2086 112.936 92.2086 122.11C92.2086 123.666 92.4116 125.171 92.7833 126.6C94.6018 119.61 100.553 114.482 107.619 114.482Z" fill="#231F20"/>
<path opacity="0.1" d="M37.2497 94.8331L148.486 94.8331C157.635 94.8331 168.017 98.7519 176.259 105.317C183.908 111.41 188.659 118.838 189.994 126.601C190.25 125.114 190.394 123.616 190.394 122.11C190.394 112.749 185.374 103.595 176.259 96.3356C168.017 89.7709 157.635 85.8516 148.486 85.8516L37.2497 85.8516C31.5577 85.8516 26.9274 90.8429 26.9274 96.9772L26.9274 105.959C26.9274 99.8239 31.5581 94.8331 37.2497 94.8331Z" fill="#231F20"/>
<path d="M51.9932 85.8521L36.2075 85.8521C30.5154 85.852 25.8852 90.8434 25.8852 96.9777L25.8852 147.243C25.8852 153.377 30.5159 158.368 36.2075 158.368L51.9932 158.368L51.9932 85.8521Z" fill="#CAE9F7"/>
<path opacity="0.1" d="M36.2085 94.9354L51.9941 94.9354L51.9941 85.8511L36.2085 85.8511C30.5164 85.8511 25.8861 90.8424 25.8861 96.9767L25.8861 106.061C25.8861 99.9267 30.5169 94.9354 36.2085 94.9354Z" fill="#231F20"/>
<path d="M14.639 122.109C14.639 119.784 16.387 117.899 18.5449 117.899L64.3978 117.899C66.5552 117.899 68.3037 119.784 68.3037 122.109C68.3037 124.435 66.5557 126.32 64.3978 126.32L18.5449 126.32C16.387 126.32 14.639 124.435 14.639 122.109Z" fill="#0A878F"/>
</svg>
