<svg width="263" height="244" viewBox="0 0 263 244" fill="none" xmlns="http://www.w3.org/2000/svg">
<g clip-path="url(#clip0_493_713)">
<path d="M133.253 0.381369C132.249 -0.127123 131.034 -0.127123 130.029 0.381369C98.659 16.2457 79.1719 46.6718 79.1719 79.7857V140.851L79.2438 147.67V172.919C79.2438 176.078 82.014 178.648 85.4186 178.648H177.375C180.779 178.648 183.549 176.078 183.549 172.919V143.352C183.909 142.849 184.11 142.251 184.11 141.625V79.7853C184.11 46.6718 164.623 16.2457 133.253 0.381369Z" fill="#0A878F"/>
<path opacity="0.1" d="M88.2258 172.76V146.811L88.1539 139.802V77.0433C88.1539 45.9838 104.391 17.2323 131.072 0.0512695C130.713 0.108457 130.359 0.215207 130.03 0.381527C98.66 16.2458 79.1729 46.672 79.1729 79.7859V140.851L79.2448 147.67V172.919C79.2448 176.078 82.015 178.648 85.4196 178.648H94.4012C90.995 178.647 88.2258 176.006 88.2258 172.76Z" fill="#231F20"/>
<path d="M200.225 38.3887C190.705 38.3887 182.988 45.549 182.988 54.3797V149.026C195.148 156.711 210.2 167.041 217.462 175.22V121.628V107.047V54.3797C217.462 45.549 209.743 38.3887 200.225 38.3887Z" fill="#07F7FF" fill-opacity="0.67"/>
<path d="M80.2953 148.236V54.3797C80.2953 45.549 72.5764 38.3887 63.0585 38.3887C53.5402 38.3887 45.8223 45.549 45.8223 54.3797V174.294C53.2433 166.102 68.242 155.842 80.2953 148.236Z" fill="#07F7FF" fill-opacity="0.67"/>
<path opacity="0.1" d="M191.969 55.6846C191.969 47.8389 197.602 41.2166 205.32 39.1002C203.709 38.6384 201.998 38.3887 200.225 38.3887C190.705 38.3887 182.988 45.549 182.988 54.3797V149.026C185.867 150.845 188.909 152.814 191.97 154.867V55.6846H191.969Z" fill="#231F20"/>
<path opacity="0.1" d="M54.8033 54.3797C54.8033 46.9901 60.2082 40.7743 67.549 38.94C66.1164 38.5821 64.6129 38.3882 63.0585 38.3882C53.5402 38.3882 45.8223 45.5485 45.8223 54.3792V174.293C48.1692 171.703 51.2744 168.906 54.8038 166.052L54.8033 54.3797Z" fill="#231F20"/>
<path d="M78.6108 244H44.1378C41.8124 244 39.9277 242.252 39.9277 240.094C39.9277 237.937 41.8124 236.188 44.1378 236.188H78.6113C80.9362 236.188 82.8214 237.937 82.8214 240.094C82.8209 242.251 80.9352 244 78.6108 244Z" fill="#0A878F"/>
<path d="M219.146 244H184.672C182.347 244 180.462 242.252 180.462 240.094C180.462 237.937 182.346 236.188 184.672 236.188H219.146C221.47 236.188 223.356 237.937 223.356 240.094C223.356 242.251 221.47 244 219.146 244Z" fill="#0A878F"/>
<path d="M223.467 205.767C223.467 205.767 223.467 196.747 223.467 183.717C223.467 170.687 166.496 138.616 166.496 138.616V216.792C166.496 218.645 165.89 220.368 164.856 221.801V221.803C164.856 221.803 185.116 221.803 204.56 221.803C224.006 221.803 223.467 205.767 223.467 205.767Z" fill="#2DCEAE"/>
<path d="M39.5327 205.156C39.5327 205.156 39.5327 196.136 39.5327 183.107C39.5327 170.077 96.5041 138.005 96.5041 138.005V216.181C96.5041 218.035 97.1082 219.757 98.1422 221.189V221.19C98.1422 221.19 77.883 221.19 58.4384 221.19C38.9929 221.191 39.5327 205.156 39.5327 205.156Z" fill="#2DCEAE"/>
<path opacity="0.1" d="M48.5143 208.281C48.5143 208.281 48.5143 199.261 48.5143 186.232C48.5143 176.475 80.4549 156.043 96.5041 146.393V138.006C96.5041 138.006 39.5327 170.078 39.5327 183.108C39.5327 196.137 39.5327 205.157 39.5327 205.157C39.5327 205.157 39.0591 219.233 54.9943 221.008C48.2533 216.313 48.5143 208.281 48.5143 208.281Z" fill="#231F20"/>
<path d="M157.415 76.7408C150.155 67.6261 141.002 62.6064 131.64 62.6064C122.28 62.6064 113.126 67.6261 105.866 76.7408C99.3012 84.983 95.3818 95.3649 95.3818 104.514V215.75C95.3818 221.442 100.373 226.073 106.507 226.073H156.772C162.907 226.073 167.898 221.442 167.898 215.75V104.514C167.899 95.3658 163.98 84.983 157.415 76.7408Z" fill="#00FFC6"/>
<path d="M131.639 160.792C140.812 160.792 148.248 153.893 148.248 145.382C148.248 136.872 140.812 129.973 131.639 129.973C122.466 129.973 115.029 136.872 115.029 145.382C115.029 153.893 122.466 160.792 131.639 160.792Z" fill="#0A878F"/>
<path opacity="0.1" d="M124.013 145.381C124.013 138.315 129.141 132.364 136.131 130.546C134.702 130.175 133.197 129.972 131.641 129.972C122.468 129.972 115.031 136.871 115.031 145.382C115.031 153.893 122.467 160.791 131.641 160.791C133.197 160.791 134.702 160.588 136.131 160.217C129.141 158.398 124.013 152.447 124.013 145.381Z" fill="#231F20"/>
<path opacity="0.1" d="M104.364 215.75V104.514C104.364 95.3654 108.283 84.983 114.848 76.7408C120.941 69.0915 128.369 64.3407 136.132 63.0058C134.645 62.7499 133.147 62.6064 131.641 62.6064C122.281 62.6064 113.127 67.6261 105.867 76.7408C99.3021 84.983 95.3828 95.3649 95.3828 104.514V215.75C95.3828 221.442 100.374 226.073 106.508 226.073H115.49C109.355 226.073 104.364 221.442 104.364 215.75Z" fill="#231F20"/>
<path d="M95.3828 201.006V216.792C95.3828 222.484 100.374 227.114 106.508 227.114H156.773C162.908 227.114 167.899 222.484 167.899 216.792V201.006H95.3828Z" fill="#CAE9F7"/>
<path opacity="0.1" d="M104.466 216.792V201.006H95.3818V216.792C95.3818 222.484 100.373 227.114 106.507 227.114H115.592C109.457 227.114 104.466 222.483 104.466 216.792Z" fill="#231F20"/>
<path d="M131.641 238.362C129.315 238.362 127.431 236.613 127.431 234.456V188.603C127.431 186.445 129.315 184.697 131.641 184.697C133.966 184.697 135.851 186.445 135.851 188.603V234.456C135.851 236.613 133.967 238.362 131.641 238.362Z" fill="#0A878F"/>
</g>
<defs>
<clipPath id="clip0_493_713">
<rect width="263" height="244" fill="white"/>
</clipPath>
</defs>
</svg>
