<svg width="56" height="56" viewBox="0 0 1920 1921" fill="none" xmlns="http://www.w3.org/2000/svg">
                          <path d="M414.857 1070.92C431.828 1070.92 448.8 1070.92 466.286 1070.92C466.286 1255.35 466.286 1439.77 466.286 1629.78C488.348 1629.78 510.411 1629.78 533.143 1629.78C533.143 1445.36 533.143 1260.94 533.143 1070.92C586.886 1070.92 640.628 1070.92 696 1070.92C696 1255.35 696 1439.77 696 1629.78C718.628 1629.78 741.257 1629.78 764.571 1629.78C764.571 1445.36 764.571 1260.94 764.571 1070.92C817.748 1070.92 870.926 1070.92 925.714 1070.92C925.714 1308.52 925.714 1546.12 925.714 1790.92C720.36 1790.92 515.006 1790.92 303.428 1790.92C302.863 1704.79 302.297 1618.66 301.714 1529.92C301.464 1502.8 301.215 1475.67 300.957 1447.72C300.834 1414.42 300.834 1414.42 300.811 1398.8C300.785 1387.96 300.685 1377.12 300.533 1366.28C300.356 1353.74 300.279 1341.2 300.317 1328.66C300.333 1322.26 300.31 1315.87 300.159 1309.47C299.339 1273.07 307.384 1249.99 327.36 1220.23C332.945 1211.76 337.927 1202.95 342.964 1194.14C344.93 1190.77 346.898 1187.4 348.87 1184.04C355.155 1173.29 361.386 1162.5 367.607 1151.71C368.662 1149.88 369.717 1148.05 370.804 1146.17C375.821 1137.46 380.833 1128.76 385.839 1120.05C387.594 1117 389.349 1113.95 391.105 1110.89C393.305 1107.07 395.502 1103.25 397.697 1099.43C398.697 1097.69 399.697 1095.95 400.728 1094.16C401.596 1092.65 402.465 1091.14 403.36 1089.58C407.082 1083.29 410.986 1077.12 414.857 1070.92Z" fill="white">
                            <animate attributeName="fill" values="white;#EAB308;white" dur="2s" repeatCount="indefinite"/>
                          </path>
                          <path d="M960 128.068C963.952 133.125 967.241 138.328 970.426 143.898C971.446 145.674 972.466 147.451 973.516 149.281C974.607 151.191 975.698 153.1 976.821 155.068C979.154 159.136 981.49 163.202 983.826 167.269C984.713 168.815 984.713 168.815 985.618 170.392C991.276 180.243 997.009 190.05 1002.75 199.853C1012.05 215.745 1021.21 231.712 1030.32 247.708C1038.23 261.588 1046.21 275.424 1054.29 289.21C1063.55 305.03 1072.67 320.925 1081.75 336.852C1089.66 350.732 1097.64 364.567 1105.71 378.353C1114.49 393.336 1123.15 408.379 1131.75 423.46C1140.83 439.383 1149.95 455.279 1159.15 471.132C1163.87 479.259 1168.56 487.399 1173.25 495.54C1183.02 512.5 1192.82 529.443 1202.68 546.353C1203.64 547.999 1204.6 549.645 1205.58 551.34C1210.99 560.607 1216.49 569.808 1222.14 578.931C1224 582.353 1224 582.353 1224 585.782C1213.72 587.228 1203.59 587.899 1193.22 588.186C1191.56 588.236 1189.91 588.286 1188.21 588.337C1173.03 588.763 1157.86 588.968 1142.68 589.098C1132.5 589.19 1122.34 589.36 1112.17 589.712C1044.32 591.988 1044.32 591.988 1031.24 581.924C1022.44 572.487 1018.17 561.84 1014.64 549.567C1012.66 543.046 1009.74 538.167 1006.08 532.438C1004.18 529.149 1002.29 525.859 1000.39 522.568C994.262 511.913 988.13 501.259 981.939 490.639C979.525 486.497 977.116 482.352 974.708 478.206C972.994 475.261 971.272 472.32 969.55 469.379C968.522 467.608 967.494 465.838 966.435 464.014C965.065 461.666 965.065 461.666 963.667 459.27C961.714 455.496 961.714 455.496 961.714 452.068C960.583 452.068 959.451 452.068 958.286 452.068C957.939 453.385 957.592 454.702 957.234 456.059C953.893 464.907 949.087 472.675 944.25 480.782C942.061 484.491 939.874 488.201 937.688 491.911C936.557 493.825 935.427 495.738 934.262 497.709C928.818 506.961 923.462 516.264 918.107 525.568C915.949 529.313 913.79 533.059 911.632 536.804C910.56 538.664 909.489 540.524 908.385 542.441C901.954 553.603 895.514 564.759 889.076 575.916C883.694 585.243 878.315 594.572 872.94 603.902C862.616 621.82 852.263 639.718 841.821 657.568C831.981 674.396 822.286 691.304 812.629 708.238C801.756 727.303 790.791 746.315 779.811 765.318C775.304 773.119 770.799 780.92 766.296 788.723C764.164 792.418 762.031 796.113 759.897 799.807C752.273 813.015 744.709 826.255 737.143 839.496C884.229 839.496 1031.31 839.496 1182.86 839.496C1168.33 813.335 1168.33 813.335 1153.39 787.425C1151.44 784.09 1149.49 780.755 1147.53 777.42C1144.47 772.188 1141.4 766.959 1138.32 761.736C1137.22 759.867 1136.12 757.998 1134.98 756.072C1133.98 754.363 1132.97 752.653 1131.93 750.892C1129.71 746.925 1129.71 746.925 1129.71 745.21C1153.9 744.85 1178.08 744.579 1202.27 744.411C1213.5 744.331 1224.73 744.221 1235.96 744.047C1246.8 743.879 1257.63 743.787 1268.47 743.747C1272.61 743.718 1276.74 743.662 1280.88 743.579C1286.67 743.467 1292.46 743.452 1298.25 743.459C1299.96 743.403 1301.67 743.348 1303.43 743.291C1314.84 743.443 1314.84 743.443 1319.88 748.579C1322.53 752.5 1324.75 756.409 1326.86 760.639C1327.88 762.363 1328.9 764.086 1329.96 765.862C1331.22 768.156 1331.22 768.156 1332.51 770.496C1333.47 772.23 1334.43 773.963 1335.42 775.749C1336.41 777.551 1337.41 779.354 1338.43 781.21C1345.27 793.534 1352.13 805.839 1359.32 817.96C1366.41 829.909 1373.38 841.922 1380.32 853.96C1381.42 855.859 1382.51 857.757 1383.64 859.712C1385.88 863.605 1388.12 867.498 1390.36 871.39C1395.76 880.762 1401.17 890.129 1406.57 899.496C1413.08 910.779 1419.59 922.062 1426.1 933.347C1427.2 935.25 1428.29 937.154 1429.43 939.116C1431.59 942.874 1433.76 946.633 1435.93 950.392C1440.91 959.034 1445.9 967.666 1450.95 976.271C1451.84 977.789 1452.72 979.307 1453.64 980.872C1455.29 983.689 1456.94 986.502 1458.6 989.312C1464 998.542 1464 998.542 1464 1002.35C1131.36 1002.35 798.72 1002.35 456 1002.35C458.448 995.008 460.308 990.026 464.109 983.63C465.518 981.241 465.518 981.241 466.955 978.803C467.972 977.099 468.988 975.395 470.036 973.639C472.224 969.93 474.412 966.22 476.598 962.51C477.729 960.596 478.859 958.683 480.023 956.712C485.467 947.46 490.824 938.157 496.179 928.853C498.337 925.108 500.495 921.362 502.654 917.617C504.261 914.827 504.261 914.827 505.901 911.98C511.263 902.673 516.632 893.371 522 884.068C524.143 880.353 526.286 876.639 528.429 872.925C541.286 850.639 554.143 828.353 567 806.068C568.061 804.229 569.122 802.39 570.215 800.495C572.356 796.784 574.498 793.072 576.639 789.361C582.021 780.034 587.4 770.706 592.775 761.376C603.099 743.458 613.451 725.56 623.893 707.71C633.188 691.818 642.348 675.852 651.463 659.855C660.332 644.294 669.311 628.801 678.362 613.344C686.043 600.206 693.608 587.004 701.143 573.782C710.64 557.117 720.229 540.509 729.914 523.953C740.465 505.912 750.898 487.804 761.33 469.694C766.692 460.388 772.06 451.085 777.429 441.782C779.571 438.068 781.714 434.353 783.857 430.639C788.143 423.21 792.429 415.782 796.714 408.353C797.775 406.514 798.836 404.676 799.929 402.781C802.07 399.07 804.212 395.358 806.353 391.647C811.735 382.32 817.114 372.992 822.489 363.661C832.813 345.744 843.166 327.845 853.607 309.996C863.447 293.168 873.143 276.26 882.799 259.326C892.624 242.101 902.52 224.917 912.442 207.748C916.873 200.081 921.291 192.406 925.701 184.726C955.898 132.17 955.898 132.17 960 128.068Z" fill="white">
                            <animate attributeName="fill" values="white;#EAB308;white" dur="2s" repeatCount="indefinite" begin="0.5s"/>
                          </path>
                          <path d="M994.286 1070.92C1058.99 1070.09 1123.68 1069.4 1188.39 1069C1196.03 1068.95 1203.68 1068.9 1211.32 1068.85C1213.61 1068.84 1213.61 1068.84 1215.94 1068.82C1240.55 1068.66 1265.17 1068.36 1289.79 1068.02C1315.06 1067.66 1340.33 1067.45 1365.61 1067.38C1381.2 1067.32 1396.78 1067.16 1412.36 1066.85C1423.07 1066.65 1433.76 1066.6 1444.46 1066.64C1450.63 1066.67 1456.79 1066.63 1462.96 1066.43C1498.89 1065.3 1498.89 1065.3 1509.28 1074.64C1516.46 1083.68 1521.25 1093.56 1525.58 1104.21C1528 1110.02 1531.03 1115.15 1534.33 1120.51C1536.24 1123.83 1538.16 1127.16 1540.07 1130.5C1542.24 1134.26 1544.4 1138.02 1546.57 1141.78C1548.19 1144.6 1548.19 1144.6 1549.84 1147.48C1555.36 1157.07 1560.9 1166.66 1566.43 1176.25C1567.49 1178.08 1568.55 1179.92 1569.64 1181.82C1574.63 1190.47 1579.63 1199.12 1584.66 1207.76C1585.55 1209.29 1586.44 1210.81 1587.35 1212.38C1589.01 1215.22 1590.66 1218.06 1592.32 1220.89C1597.71 1230.16 1597.71 1230.16 1597.71 1232.07C1526.43 1232.07 1455.15 1232.07 1381.71 1232.07C1381.71 1416.49 1381.71 1600.91 1381.71 1790.92C1328.54 1790.92 1275.36 1790.92 1220.57 1790.92C1218.86 1789.21 1218.86 1789.21 1218.64 1785.43C1218.65 1782.89 1218.65 1782.89 1218.65 1780.3C1218.64 1778.35 1218.64 1776.41 1218.64 1774.41C1218.64 1772.24 1218.65 1770.08 1218.65 1767.85C1218.65 1765.55 1218.65 1763.25 1218.65 1760.95C1218.64 1754.61 1218.65 1748.26 1218.66 1741.91C1218.67 1735.07 1218.66 1728.24 1218.66 1721.4C1218.66 1709.55 1218.67 1697.7 1218.68 1685.85C1218.69 1668.71 1218.69 1651.58 1218.7 1634.44C1218.7 1606.64 1218.71 1578.84 1218.73 1551.04C1218.74 1524.03 1218.76 1497.02 1218.76 1470.01C1218.76 1468.35 1218.76 1466.68 1218.76 1464.97C1218.77 1456.62 1218.77 1448.28 1218.77 1439.93C1218.79 1370.64 1218.82 1301.36 1218.86 1232.07C1144.75 1232.07 1070.64 1232.07 994.286 1232.07C994.286 1178.89 994.286 1125.71 994.286 1070.92Z" fill="white">
                            <animate attributeName="fill" values="white;#EAB308;white" dur="2s" repeatCount="indefinite" begin="1s"/>
                          </path>
                          <path d="M1450.29 1300.64C1512.51 1300.64 1574.74 1300.64 1638.86 1300.64C1647.34 1315.91 1655.83 1331.19 1664.57 1346.92C1671.52 1358.9 1678.48 1370.86 1685.49 1382.79C1690.99 1392.2 1696.42 1401.66 1701.86 1411.1C1709.49 1424.36 1717.17 1437.6 1724.94 1450.77C1731.27 1461.5 1737.57 1472.24 1743.86 1483C1744.85 1484.69 1745.84 1486.38 1746.86 1488.12C1752.53 1497.82 1758 1507.59 1763.35 1517.46C1766.61 1523.41 1770.05 1529.24 1773.54 1535.07C1780.52 1546.84 1787.29 1558.71 1794 1570.64C1800.37 1581.95 1806.77 1593.23 1813.39 1604.39C1820.93 1617.09 1828.26 1629.91 1835.57 1642.75C1845.21 1659.65 1854.93 1676.51 1864.76 1693.3C1873.25 1707.81 1881.63 1722.38 1890 1736.96C1897.81 1750.51 1905.8 1763.95 1913.99 1777.27C1914.79 1778.58 1915.58 1779.88 1916.4 1781.23C1917.1 1782.36 1917.8 1783.5 1918.52 1784.67C1920 1787.5 1920 1787.5 1920 1790.92C1764.99 1790.92 1609.99 1790.92 1450.29 1790.92C1450.29 1629.13 1450.29 1467.34 1450.29 1300.64Z" fill="#EAB308">
                            <animate attributeName="fill" values="#EAB308;white;#EAB308" dur="2s" repeatCount="indefinite" begin="1.5s"/>
                          </path>
                          <path d="M994.286 1300.64C1046.33 1300.64 1098.38 1300.64 1152 1300.64C1152 1462.43 1152 1624.23 1152 1790.92C1099.95 1790.92 1047.91 1790.92 994.286 1790.92C994.286 1629.13 994.286 1467.34 994.286 1300.64Z" fill="#EAB308">
                            <animate attributeName="fill" values="#EAB308;white;#EAB308" dur="2s" repeatCount="indefinite" begin="2s"/>
                          </path>
                          <path d="M233.143 1386.35C233.709 1386.35 234.274 1386.35 234.857 1386.35C234.857 1520.43 234.857 1654.5 234.857 1792.64C118.603 1791.79 118.603 1791.79 0 1790.92C2.57354 1784.49 5.10404 1779.13 8.54464 1773.21C9.57 1771.44 10.5954 1769.67 11.6518 1767.85C13.3092 1765 13.3092 1765 15 1762.1C16.1612 1760.1 17.3219 1758.1 18.4821 1756.1C22.0275 1749.99 25.5839 1743.88 29.1429 1737.78C30.1804 1736 31.2179 1734.22 32.2868 1732.39C36.2263 1725.63 40.1678 1718.88 44.1119 1712.13C61.2052 1682.85 78.0828 1653.45 94.8747 1624C102.206 1611.15 109.607 1598.34 117.163 1585.62C123.126 1575.54 128.844 1565.32 134.571 1555.1C141.728 1542.35 149.048 1529.76 156.991 1517.47C161.821 1509.95 166.102 1502.21 170.346 1494.34C175.35 1485.16 180.582 1476.1 185.786 1467.03C187.582 1463.9 189.378 1460.76 191.174 1457.63C192.412 1455.46 193.65 1453.3 194.889 1451.14C199.369 1443.32 203.828 1435.49 208.279 1427.65C210.143 1424.37 212.008 1421.09 213.873 1417.82C215.069 1415.71 216.263 1413.61 217.456 1411.5C219.12 1408.56 220.791 1405.63 222.462 1402.69C223.883 1400.19 223.883 1400.19 225.334 1397.63C227.736 1393.65 230.188 1389.95 233.143 1386.35Z" fill="#EAB308">
                            <animate attributeName="fill" values="#EAB308;white;#EAB308" dur="2s" repeatCount="indefinite" begin="2.5s"/>
                          </path>
                          <path d="M958.286 544.639C959.417 544.639 960.549 544.639 961.714 544.639C962.377 545.792 963.039 546.944 963.721 548.132C976.051 569.58 988.426 590.996 1001.04 612.277C1008.83 625.42 1016.57 638.597 1024.29 651.782C1032.83 666.37 1041.39 680.948 1050 695.496C1058.82 710.403 1067.6 725.337 1076.36 740.282C1077.27 741.84 1077.27 741.84 1078.2 743.43C1081.11 748.393 1084.02 753.358 1086.92 758.324C1089.22 762.241 1091.52 766.156 1093.82 770.066C1094.92 771.936 1096.02 773.806 1097.16 775.733C1098.14 777.407 1099.13 779.082 1100.15 780.808C1102.29 784.639 1102.29 784.639 1102.29 786.353C1008.94 786.353 915.6 786.353 819.429 786.353C826.241 772.728 833.122 759.56 840.857 746.496C842.985 742.876 845.112 739.255 847.239 735.634C848.315 733.807 849.392 731.981 850.501 730.098C855.559 721.506 860.584 712.894 865.607 704.282C866.594 702.591 867.581 700.901 868.598 699.159C875.899 686.644 883.134 674.092 890.357 661.532C899.131 646.281 908.034 631.113 917.036 615.996C931.094 592.385 944.729 568.541 958.286 544.639Z" fill="#EAB308">
                            <animate attributeName="fill" values="#EAB308;white;#EAB308" dur="2s" repeatCount="indefinite" begin="3s"/>
                          </path>
                      </svg>