<svg width="1921" height="1921" viewBox="0 0 1921 1921" fill="none" xmlns="http://www.w3.org/2000/svg">
<g clip-path="url(#clip0_136_25)">
<path d="M415.241 1070.92C432.213 1070.92 449.184 1070.92 466.67 1070.92C466.67 1255.35 466.67 1439.77 466.67 1629.78C488.733 1629.78 510.796 1629.78 533.527 1629.78C533.527 1445.36 533.527 1260.94 533.527 1070.92C587.27 1070.92 641.013 1070.92 696.384 1070.92C696.384 1255.35 696.384 1439.77 696.384 1629.78C719.013 1629.78 741.642 1629.78 764.956 1629.78C764.956 1445.36 764.956 1260.94 764.956 1070.92C818.133 1070.92 871.31 1070.92 926.099 1070.92C926.099 1308.52 926.099 1546.12 926.099 1790.92C720.744 1790.92 515.39 1790.92 303.813 1790.92C303.247 1704.79 302.681 1618.66 302.098 1529.92C301.849 1502.8 301.599 1475.67 301.342 1447.72C301.218 1414.42 301.218 1414.42 301.195 1398.8C301.169 1387.96 301.07 1377.12 300.917 1366.28C300.741 1353.74 300.663 1341.2 300.701 1328.66C300.717 1322.26 300.694 1315.87 300.543 1309.47C299.723 1273.07 307.769 1249.99 327.744 1220.23C333.329 1211.76 338.312 1202.95 343.348 1194.14C345.314 1190.77 347.282 1187.4 349.255 1184.04C355.539 1173.29 361.77 1162.5 367.991 1151.71C369.046 1149.88 370.101 1148.05 371.188 1146.16C376.205 1137.46 381.217 1128.76 386.224 1120.05C387.978 1117 389.734 1113.94 391.49 1110.89C393.689 1107.07 395.886 1103.25 398.081 1099.42C399.081 1097.69 400.081 1095.95 401.112 1094.16C401.981 1092.65 402.849 1091.14 403.744 1089.58C407.466 1083.29 411.37 1077.12 415.241 1070.92Z" fill="#1e293b"/>
<path d="M960.385 128.067C964.337 133.125 967.626 138.328 970.811 143.898C971.831 145.674 972.85 147.451 973.901 149.281C974.992 151.19 976.082 153.1 977.206 155.067C979.539 159.136 981.875 163.202 984.21 167.268C985.098 168.814 985.098 168.814 986.003 170.392C991.66 180.243 997.394 190.05 1003.13 199.853C1012.43 215.745 1021.59 231.712 1030.71 247.708C1038.62 261.588 1046.6 275.424 1054.67 289.21C1063.93 305.03 1073.06 320.925 1082.13 336.852C1090.04 350.732 1098.03 364.567 1106.1 378.353C1114.87 393.336 1123.53 408.379 1132.13 423.46C1141.21 439.383 1150.34 455.279 1159.54 471.132C1164.25 479.259 1168.94 487.399 1173.63 495.54C1183.4 512.5 1193.21 529.443 1203.06 546.353C1204.02 547.999 1204.98 549.645 1205.97 551.34C1211.38 560.607 1216.87 569.808 1222.52 578.931C1224.38 582.353 1224.38 582.353 1224.38 585.782C1214.1 587.228 1203.98 587.899 1193.6 588.186C1191.95 588.236 1190.3 588.286 1188.59 588.337C1173.42 588.763 1158.24 588.968 1143.06 589.098C1132.89 589.19 1122.73 589.36 1112.56 589.712C1044.7 591.987 1044.7 591.987 1031.62 581.924C1022.82 572.486 1018.55 561.84 1015.02 549.566C1013.04 543.046 1010.13 538.167 1006.46 532.438C1004.57 529.149 1002.67 525.858 1000.78 522.568C994.646 511.913 988.515 501.259 982.324 490.639C979.91 486.497 977.501 482.352 975.092 478.206C973.378 475.261 971.656 472.32 969.934 469.379C968.906 467.608 967.879 465.838 966.82 464.014C965.449 461.665 965.449 461.665 964.051 459.27C962.099 455.496 962.099 455.496 962.099 452.067C960.967 452.067 959.836 452.067 958.67 452.067C958.323 453.385 957.976 454.702 957.619 456.059C954.277 464.907 949.471 472.675 944.635 480.782C942.446 484.491 940.258 488.201 938.072 491.911C936.942 493.824 935.811 495.738 934.647 497.709C929.203 506.961 923.847 516.263 918.492 525.568C916.333 529.313 914.175 533.059 912.016 536.804C910.945 538.664 909.873 540.524 908.769 542.441C902.338 553.602 895.898 564.759 889.46 575.916C884.079 585.243 878.699 594.572 873.324 603.902C863 621.82 852.647 639.718 842.206 657.568C832.366 674.396 822.67 691.304 813.014 708.238C802.14 727.303 791.176 746.315 780.195 765.318C775.688 773.119 771.184 780.92 766.681 788.723C764.548 792.418 762.415 796.113 760.281 799.807C752.658 813.015 745.094 826.255 737.527 839.496C884.613 839.496 1031.7 839.496 1183.24 839.496C1168.72 813.335 1168.72 813.335 1153.78 787.425C1151.82 784.09 1149.87 780.755 1147.92 777.42C1144.85 772.188 1141.78 766.959 1138.7 761.736C1137.6 759.867 1136.5 757.998 1135.37 756.072C1134.36 754.362 1133.35 752.653 1132.31 750.892C1130.1 746.925 1130.1 746.925 1130.1 745.21C1154.28 744.85 1178.47 744.579 1202.66 744.411C1213.89 744.331 1225.12 744.221 1236.35 744.047C1247.18 743.879 1258.02 743.787 1268.86 743.747C1272.99 743.718 1277.13 743.662 1281.26 743.579C1287.06 743.467 1292.84 743.452 1298.64 743.459C1300.35 743.403 1302.06 743.348 1303.82 743.291C1315.22 743.443 1315.22 743.443 1320.26 748.579C1322.91 752.5 1325.13 756.409 1327.24 760.639C1328.26 762.363 1329.29 764.086 1330.34 765.862C1331.6 768.156 1331.6 768.156 1332.89 770.496C1333.85 772.23 1334.82 773.963 1335.81 775.749C1336.8 777.551 1337.79 779.354 1338.81 781.21C1345.66 793.534 1352.51 805.839 1359.71 817.96C1366.8 829.909 1373.77 841.922 1380.71 853.96C1381.8 855.859 1382.89 857.757 1384.02 859.712C1386.26 863.605 1388.5 867.498 1390.75 871.39C1396.14 880.762 1401.55 890.129 1406.96 899.496C1413.47 910.779 1419.98 922.062 1426.48 933.347C1427.58 935.25 1428.68 937.154 1429.81 939.116C1431.98 942.874 1434.14 946.633 1436.31 950.392C1441.29 959.035 1446.29 967.666 1451.33 976.271C1452.22 977.789 1453.11 979.307 1454.02 980.872C1455.67 983.689 1457.33 986.502 1458.99 989.312C1464.38 998.542 1464.38 998.542 1464.38 1002.35C1131.74 1002.35 799.104 1002.35 456.384 1002.35C458.833 995.008 460.692 990.026 464.494 983.63C465.902 981.241 465.902 981.241 467.339 978.803C468.356 977.099 469.373 975.395 470.42 973.639C472.609 969.93 474.796 966.22 476.982 962.51C478.113 960.596 479.243 958.683 480.408 956.712C485.852 947.46 491.208 938.157 496.563 928.853C498.721 925.108 500.88 921.362 503.038 917.617C504.646 914.827 504.646 914.827 506.285 911.98C511.647 902.673 517.016 893.371 522.384 884.068C524.527 880.353 526.67 876.639 528.813 872.925C541.67 850.639 554.527 828.353 567.384 806.068C568.445 804.229 569.506 802.39 570.599 800.495C572.74 796.784 574.882 793.072 577.023 789.361C582.405 780.034 587.784 770.706 593.159 761.376C603.483 743.458 613.836 725.56 624.277 707.71C633.572 691.818 642.733 675.852 651.848 659.855C660.717 644.294 669.695 628.801 678.746 613.344C686.427 600.206 693.993 587.004 701.527 573.782C711.024 557.117 720.614 540.509 730.299 523.953C740.849 505.912 751.282 487.804 761.714 469.694C767.076 460.388 772.445 451.085 777.813 441.782C779.956 438.068 782.099 434.353 784.242 430.639C788.527 423.21 792.813 415.782 797.099 408.353C798.16 406.514 799.22 404.676 800.313 402.781C802.455 399.069 804.596 395.358 806.738 391.646C812.119 382.32 817.499 372.992 822.873 363.661C833.197 345.744 843.55 327.845 853.992 309.996C863.832 293.168 873.527 276.259 883.184 259.326C893.008 242.1 902.904 224.917 912.827 207.748C917.258 200.081 921.676 192.406 926.085 184.726C956.282 132.17 956.282 132.17 960.385 128.067Z" fill="#1e293b"/>
<path d="M994.67 1070.92C1059.37 1070.09 1124.07 1069.39 1188.77 1069C1196.42 1068.95 1204.06 1068.9 1211.71 1068.85C1213.99 1068.84 1213.99 1068.84 1216.32 1068.82C1240.94 1068.66 1265.55 1068.36 1290.17 1068.01C1315.44 1067.66 1340.72 1067.45 1365.99 1067.37C1381.58 1067.32 1397.16 1067.16 1412.75 1066.85C1423.45 1066.65 1434.14 1066.59 1444.85 1066.64C1451.02 1066.67 1457.17 1066.63 1463.34 1066.43C1499.27 1065.3 1499.27 1065.3 1509.66 1074.64C1516.84 1083.68 1521.64 1093.55 1525.96 1104.21C1528.39 1110.02 1531.42 1115.15 1534.71 1120.5C1536.63 1123.83 1538.54 1127.16 1540.46 1130.49C1542.62 1134.26 1544.79 1138.02 1546.95 1141.78C1548.57 1144.6 1548.57 1144.6 1550.23 1147.47C1555.75 1157.07 1561.28 1166.66 1566.81 1176.24C1567.87 1178.08 1568.93 1179.92 1570.02 1181.81C1575.02 1190.47 1580.02 1199.12 1585.05 1207.76C1585.93 1209.28 1586.82 1210.81 1587.74 1212.38C1589.39 1215.22 1591.04 1218.05 1592.7 1220.89C1598.1 1230.16 1598.1 1230.16 1598.1 1232.07C1526.82 1232.07 1455.54 1232.07 1382.1 1232.07C1382.1 1416.49 1382.1 1600.91 1382.1 1790.92C1328.92 1790.92 1275.74 1790.92 1220.96 1790.92C1219.24 1789.21 1219.24 1789.21 1219.03 1785.42C1219.03 1782.89 1219.03 1782.89 1219.03 1780.3C1219.03 1778.35 1219.02 1776.41 1219.02 1774.4C1219.02 1772.24 1219.03 1770.08 1219.03 1767.85C1219.03 1765.55 1219.03 1763.25 1219.03 1760.95C1219.03 1754.6 1219.03 1748.26 1219.04 1741.91C1219.05 1735.07 1219.05 1728.24 1219.05 1721.4C1219.04 1709.55 1219.05 1697.7 1219.06 1685.85C1219.07 1668.71 1219.08 1651.57 1219.08 1634.44C1219.08 1606.64 1219.1 1578.84 1219.11 1551.04C1219.13 1524.03 1219.14 1497.02 1219.15 1470.01C1219.15 1468.34 1219.15 1466.68 1219.15 1464.97C1219.15 1456.62 1219.15 1448.27 1219.15 1439.93C1219.17 1370.64 1219.2 1301.35 1219.24 1232.07C1145.13 1232.07 1071.02 1232.07 994.67 1232.07C994.67 1178.89 994.67 1125.71 994.67 1070.92Z" fill="#1e293b"/>
<path d="M1450.67 1300.64C1512.9 1300.64 1575.13 1300.64 1639.24 1300.64C1647.73 1315.91 1656.21 1331.19 1664.95 1346.92C1671.9 1358.9 1678.86 1370.86 1685.87 1382.79C1691.37 1392.2 1696.8 1401.66 1702.24 1411.1C1709.88 1424.36 1717.55 1437.6 1725.32 1450.77C1731.65 1461.5 1737.95 1472.24 1744.24 1483C1745.23 1484.69 1746.22 1486.38 1747.25 1488.12C1752.91 1497.82 1758.38 1507.59 1763.73 1517.46C1766.99 1523.41 1770.44 1529.24 1773.92 1535.07C1780.9 1546.84 1787.67 1558.71 1794.38 1570.64C1800.75 1581.95 1807.15 1593.23 1813.78 1604.39C1821.31 1617.09 1828.64 1629.91 1835.95 1642.75C1845.59 1659.65 1855.31 1676.51 1865.14 1693.3C1873.63 1707.81 1882.01 1722.38 1890.39 1736.96C1898.2 1750.51 1906.18 1763.95 1914.38 1777.27C1915.17 1778.58 1915.97 1779.88 1916.79 1781.23C1917.48 1782.36 1918.18 1783.5 1918.9 1784.67C1920.38 1787.5 1920.38 1787.5 1920.38 1790.92C1765.38 1790.92 1610.37 1790.92 1450.67 1790.92C1450.67 1629.13 1450.67 1467.34 1450.67 1300.64Z" fill="#EAB308"/>
<path d="M994.67 1300.64C1046.72 1300.64 1098.76 1300.64 1152.38 1300.64C1152.38 1462.43 1152.38 1624.23 1152.38 1790.92C1100.34 1790.92 1048.29 1790.92 994.67 1790.92C994.67 1629.13 994.67 1467.34 994.67 1300.64Z" fill="#EAB308"/>
<path d="M233.526 1386.35C234.092 1386.35 234.657 1386.35 235.24 1386.35C235.24 1520.43 235.24 1654.5 235.24 1792.64C118.986 1791.79 118.986 1791.79 0.382812 1790.92C2.95635 1784.49 5.48686 1779.14 8.92746 1773.21C9.95282 1771.44 10.9782 1769.67 12.0346 1767.85C13.692 1765 13.692 1765 15.3828 1762.1C16.544 1760.1 17.7047 1758.1 18.865 1756.1C22.4103 1749.99 25.9667 1743.88 29.5257 1737.78C30.5632 1736 31.6007 1734.22 32.6697 1732.39C36.6091 1725.63 40.5506 1718.88 44.4947 1712.13C61.588 1682.85 78.4657 1653.45 95.2576 1624C102.589 1611.15 109.99 1598.34 117.546 1585.62C123.509 1575.54 129.226 1565.32 134.954 1555.1C142.111 1542.35 149.431 1529.76 157.374 1517.47C162.204 1509.95 166.485 1502.21 170.729 1494.34C175.733 1485.16 180.965 1476.1 186.169 1467.03C187.965 1463.9 189.761 1460.76 191.557 1457.63C192.795 1455.46 194.033 1453.3 195.272 1451.14C199.752 1443.32 204.211 1435.49 208.662 1427.65C210.526 1424.37 212.391 1421.09 214.256 1417.82C215.452 1415.71 216.646 1413.61 217.838 1411.5C219.503 1408.56 221.174 1405.63 222.845 1402.69C224.266 1400.19 224.266 1400.19 225.717 1397.63C228.119 1393.65 230.571 1389.95 233.526 1386.35Z" fill="#EAB308"/>
<path d="M958.67 544.639C959.801 544.639 960.933 544.639 962.099 544.639C962.761 545.792 963.423 546.945 964.105 548.132C976.435 569.581 988.81 590.997 1001.43 612.278C1009.22 625.42 1016.95 638.598 1024.67 651.782C1033.21 666.371 1041.77 680.948 1050.38 695.497C1059.21 710.404 1067.98 725.338 1076.74 740.282C1077.65 741.841 1077.65 741.841 1078.59 743.43C1081.5 748.394 1084.4 753.358 1087.31 758.324C1089.6 762.242 1091.9 766.156 1094.21 770.066C1095.31 771.936 1096.41 773.807 1097.54 775.733C1098.53 777.408 1099.52 779.083 1100.53 780.808C1102.67 784.639 1102.67 784.639 1102.67 786.354C1009.33 786.354 915.984 786.354 819.813 786.354C826.625 772.729 833.506 759.56 841.241 746.497C843.369 742.876 845.496 739.256 847.623 735.635C848.699 733.808 849.776 731.981 850.885 730.099C855.943 721.506 860.968 712.895 865.991 704.282C866.978 702.592 867.965 700.902 868.982 699.16C876.283 686.645 883.518 674.092 890.741 661.532C899.515 646.281 908.418 631.114 917.42 615.997C931.478 592.385 945.113 568.541 958.67 544.639Z" fill="#EAB308"/>
</g>
<defs>
<clipPath id="clip0_136_25">
<rect width="1920" height="1920" fill="white" transform="translate(0.382721 0.353149)"/>
</clipPath>
</defs>
</svg>
