<svg width="49" height="48" viewBox="0 0 49 48" fill="none" xmlns="http://www.w3.org/2000/svg">
<path d="M43.5917 28.2426C44.7633 29.4142 44.7633 31.3137 43.5917 32.4853L39.3491 36.7279C38.1775 37.8995 36.278 37.8995 35.1065 36.7279L30.8638 32.4853C29.6922 31.3137 29.6922 29.4142 30.8638 28.2426L35.1065 24C36.278 22.8284 38.1775 22.8284 39.3491 24L43.5917 28.2426Z" fill="white"/>
<path d="M33.6922 18.3431C34.8638 19.5147 34.8638 21.4142 33.6922 22.5858L26.6212 29.6569C25.4496 30.8284 23.5501 30.8284 22.3785 29.6569L15.3075 22.5858C14.1359 21.4142 14.1359 19.5147 15.3075 18.3431L22.3785 11.2721C23.5501 10.1005 25.4496 10.1005 26.6212 11.2721L33.6922 18.3431Z" fill="white"/>
<path d="M18.1359 28.2426C19.3075 29.4142 19.3075 31.3137 18.1359 32.4853L13.8933 36.7279C12.7217 37.8995 10.8222 37.8995 9.65062 36.7279L5.40798 32.4853C4.2364 31.3137 4.2364 29.4142 5.40798 28.2426L9.65062 24C10.8222 22.8284 12.7217 22.8284 13.8933 24L18.1359 28.2426Z" fill="white"/>
</svg>
