<svg width="49" height="49" viewBox="0 0 49 49" fill="none" xmlns="http://www.w3.org/2000/svg">
<path d="M43.5917 28.5015C44.7633 29.673 44.7633 31.5725 43.5917 32.7441L39.3491 36.9867C38.1775 38.1583 36.278 38.1583 35.1065 36.9867L30.8638 32.7441C29.6922 31.5725 29.6922 29.673 30.8638 28.5015L35.1065 24.2588C36.278 23.0873 38.1775 23.0873 39.3491 24.2588L43.5917 28.5015Z" fill="#030712"/>
<path d="M33.6922 18.602C34.8638 19.7735 34.8638 21.673 33.6922 22.8446L26.6212 29.9157C25.4496 31.0873 23.5501 31.0873 22.3785 29.9157L15.3075 22.8446C14.1359 21.673 14.1359 19.7735 15.3075 18.602L22.3785 11.5309C23.5501 10.3593 25.4496 10.3593 26.6212 11.5309L33.6922 18.602Z" fill="#030712"/>
<path d="M18.1359 28.5015C19.3075 29.673 19.3075 31.5725 18.1359 32.7441L13.8933 36.9867C12.7217 38.1583 10.8222 38.1583 9.65062 36.9867L5.40798 32.7441C4.2364 31.5725 4.2364 29.673 5.40798 28.5015L9.65062 24.2588C10.8222 23.0873 12.7217 23.0873 13.8933 24.2588L18.1359 28.5015Z" fill="#030712"/>
</svg>
