<svg width="48" height="49" viewBox="0 0 48 49" fill="none" xmlns="http://www.w3.org/2000/svg">
<rect y="0.25882" width="48" height="48" rx="12" fill="white"/>
<path d="M43.0917 28.5015C44.2633 29.673 44.2633 31.5725 43.0917 32.7441L38.8491 36.9867C37.6775 38.1583 35.778 38.1583 34.6065 36.9867L30.3638 32.7441C29.1922 31.5725 29.1922 29.673 30.3638 28.5015L34.6065 24.2588C35.778 23.0873 37.6775 23.0873 38.8491 24.2588L43.0917 28.5015Z" fill="#030712"/>
<path d="M33.1922 18.602C34.3638 19.7735 34.3638 21.673 33.1922 22.8446L26.1212 29.9157C24.9496 31.0873 23.0501 31.0873 21.8785 29.9157L14.8075 22.8446C13.6359 21.673 13.6359 19.7735 14.8075 18.602L21.8785 11.5309C23.0501 10.3593 24.9496 10.3593 26.1212 11.5309L33.1922 18.602Z" fill="#030712"/>
<path d="M17.6359 28.5015C18.8075 29.673 18.8075 31.5725 17.6359 32.7441L13.3933 36.9867C12.2217 38.1583 10.3222 38.1583 9.15062 36.9867L4.90798 32.7441C3.7364 31.5725 3.7364 29.673 4.90798 28.5015L9.15062 24.2588C10.3222 23.0873 12.2217 23.0873 13.3933 24.2588L17.6359 28.5015Z" fill="#030712"/>
</svg>
