<svg width="48" height="48" viewBox="0 0 48 48" fill="none" xmlns="http://www.w3.org/2000/svg">
<rect width="48" height="48" rx="12" fill="#030712"/>
<path d="M43.0917 28.2426C44.2633 29.4142 44.2633 31.3137 43.0917 32.4853L38.8491 36.7279C37.6775 37.8995 35.778 37.8995 34.6065 36.7279L30.3638 32.4853C29.1922 31.3137 29.1922 29.4142 30.3638 28.2426L34.6065 24C35.778 22.8284 37.6775 22.8284 38.8491 24L43.0917 28.2426Z" fill="url(#paint0_linear_27_95)"/>
<path d="M33.1922 18.3431C34.3638 19.5147 34.3638 21.4142 33.1922 22.5858L26.1212 29.6569C24.9496 30.8284 23.0501 30.8284 21.8785 29.6569L14.8075 22.5858C13.6359 21.4142 13.6359 19.5147 14.8075 18.3431L21.8785 11.2721C23.0501 10.1005 24.9496 10.1005 26.1212 11.2721L33.1922 18.3431Z" fill="url(#paint1_linear_27_95)"/>
<path d="M17.6359 28.2426C18.8075 29.4142 18.8075 31.3137 17.6359 32.4853L13.3933 36.7279C12.2217 37.8995 10.3222 37.8995 9.15062 36.7279L4.90798 32.4853C3.7364 31.3137 3.7364 29.4142 4.90798 28.2426L9.15062 24C10.3222 22.8284 12.2217 22.8284 13.3933 24L17.6359 28.2426Z" fill="url(#paint2_linear_27_95)"/>
<defs>
<linearGradient id="paint0_linear_27_95" x1="4.0293" y1="10.3934" x2="29.3552" y2="47.5645" gradientUnits="userSpaceOnUse">
<stop stop-color="#2CFBCD"/>
<stop offset="1" stop-color="#107C76"/>
</linearGradient>
<linearGradient id="paint1_linear_27_95" x1="4.0293" y1="10.3934" x2="29.3552" y2="47.5645" gradientUnits="userSpaceOnUse">
<stop stop-color="#2CFBCD"/>
<stop offset="1" stop-color="#107C76"/>
</linearGradient>
<linearGradient id="paint2_linear_27_95" x1="4.0293" y1="10.3934" x2="29.3552" y2="47.5645" gradientUnits="userSpaceOnUse">
<stop stop-color="#2CFBCD"/>
<stop offset="1" stop-color="#107C76"/>
</linearGradient>
</defs>
</svg>
